<?xml version="1.0" encoding="UTF-8" standalone="no"?>
<!DOCTYPE svg PUBLIC "-//W3C//DTD SVG 1.1//EN"
 "http://www.w3.org/Graphics/SVG/1.1/DTD/svg11.dtd">
<!-- Generated by graphviz version 2.50.0 (20211209.0339)
 -->
<!-- Title: snakemake_dag Pages: 1 -->
<svg width="477pt" height="404pt"
 viewBox="0.00 0.00 477.00 404.00" xmlns="http://www.w3.org/2000/svg" xmlns:xlink="http://www.w3.org/1999/xlink">
<g id="graph0" class="graph" transform="scale(1 1) rotate(0) translate(4 400)">
<title>snakemake_dag</title>
<polygon fill="white" stroke="transparent" points="-4,4 -4,-400 473,-400 473,4 -4,4"/>
<!-- 0 -->
<g id="node1" class="node">
<title>0</title>
<path fill="none" stroke="#bed856" stroke-width="2" d="M238.5,-36C238.5,-36 208.5,-36 208.5,-36 202.5,-36 196.5,-30 196.5,-24 196.5,-24 196.5,-12 196.5,-12 196.5,-6 202.5,0 208.5,0 208.5,0 238.5,0 238.5,0 244.5,0 250.5,-6 250.5,-12 250.5,-12 250.5,-24 250.5,-24 250.5,-30 244.5,-36 238.5,-36"/>
<text text-anchor="middle" x="223.5" y="-15.5" font-family="sans" font-size="10.00">all</text>
</g>
<!-- 1 -->
<g id="node2" class="node">
<title>1</title>
<path fill="none" stroke="#59d856" stroke-width="2" d="M71,-396C71,-396 12,-396 12,-396 6,-396 0,-390 0,-384 0,-384 0,-372 0,-372 0,-366 6,-360 12,-360 12,-360 71,-360 71,-360 77,-360 83,-366 83,-372 83,-372 83,-384 83,-384 83,-390 77,-396 71,-396"/>
<text text-anchor="middle" x="41.5" y="-381" font-family="sans" font-size="10.00">assemble</text>
<text text-anchor="middle" x="41.5" y="-370" font-family="sans" font-size="10.00">sample: test_1</text>
</g>
<!-- 1&#45;&gt;0 -->
<g id="edge1" class="edge">
<title>1&#45;&gt;0</title>
<path fill="none" stroke="grey" stroke-width="2" d="M35.83,-359.73C27.65,-333.21 13.5,-280.73 13.5,-235 13.5,-235 13.5,-235 13.5,-161 13.5,-78.42 126.33,-40.61 186.58,-26.3"/>
<polygon fill="grey" stroke="grey" stroke-width="2" points="187.5,-29.68 196.48,-24.05 185.95,-22.86 187.5,-29.68"/>
</g>
<!-- 3 -->
<g id="node4" class="node">
<title>3</title>
<path fill="none" stroke="#568ad8" stroke-width="2" d="M83.5,-324C83.5,-324 53.5,-324 53.5,-324 47.5,-324 41.5,-318 41.5,-312 41.5,-312 41.5,-300 41.5,-300 41.5,-294 47.5,-288 53.5,-288 53.5,-288 83.5,-288 83.5,-288 89.5,-288 95.5,-294 95.5,-300 95.5,-300 95.5,-312 95.5,-312 95.5,-318 89.5,-324 83.5,-324"/>
<text text-anchor="middle" x="68.5" y="-303.5" font-family="sans" font-size="10.00">filter</text>
</g>
<!-- 1&#45;&gt;3 -->
<g id="edge11" class="edge">
<title>1&#45;&gt;3</title>
<path fill="none" stroke="grey" stroke-width="2" d="M48.17,-359.7C51.21,-351.81 54.88,-342.3 58.26,-333.55"/>
<polygon fill="grey" stroke="grey" stroke-width="2" points="61.57,-334.69 61.9,-324.1 55.04,-332.17 61.57,-334.69"/>
</g>
<!-- 2 -->
<g id="node3" class="node">
<title>2</title>
<path fill="none" stroke="#59d856" stroke-width="2" d="M312,-396C312,-396 253,-396 253,-396 247,-396 241,-390 241,-384 241,-384 241,-372 241,-372 241,-366 247,-360 253,-360 253,-360 312,-360 312,-360 318,-360 324,-366 324,-372 324,-372 324,-384 324,-384 324,-390 318,-396 312,-396"/>
<text text-anchor="middle" x="282.5" y="-381" font-family="sans" font-size="10.00">assemble</text>
<text text-anchor="middle" x="282.5" y="-370" font-family="sans" font-size="10.00">sample: test_2</text>
</g>
<!-- 2&#45;&gt;0 -->
<g id="edge2" class="edge">
<title>2&#45;&gt;0</title>
<path fill="none" stroke="grey" stroke-width="2" d="M277.04,-359.71C269.15,-333.18 255.5,-280.67 255.5,-235 255.5,-235 255.5,-235 255.5,-161 255.5,-120.04 242.67,-74.02 233.26,-45.77"/>
<polygon fill="grey" stroke="grey" stroke-width="2" points="236.53,-44.53 229.98,-36.21 229.91,-46.8 236.53,-44.53"/>
</g>
<!-- 4 -->
<g id="node5" class="node">
<title>4</title>
<path fill="none" stroke="#568ad8" stroke-width="2" d="M325.5,-324C325.5,-324 295.5,-324 295.5,-324 289.5,-324 283.5,-318 283.5,-312 283.5,-312 283.5,-300 283.5,-300 283.5,-294 289.5,-288 295.5,-288 295.5,-288 325.5,-288 325.5,-288 331.5,-288 337.5,-294 337.5,-300 337.5,-300 337.5,-312 337.5,-312 337.5,-318 331.5,-324 325.5,-324"/>
<text text-anchor="middle" x="310.5" y="-303.5" font-family="sans" font-size="10.00">filter</text>
</g>
<!-- 2&#45;&gt;4 -->
<g id="edge12" class="edge">
<title>2&#45;&gt;4</title>
<path fill="none" stroke="grey" stroke-width="2" d="M289.42,-359.7C292.57,-351.81 296.38,-342.3 299.88,-333.55"/>
<polygon fill="grey" stroke="grey" stroke-width="2" points="303.19,-334.69 303.66,-324.1 296.69,-332.09 303.19,-334.69"/>
</g>
<!-- 3&#45;&gt;0 -->
<g id="edge3" class="edge">
<title>3&#45;&gt;0</title>
<path fill="none" stroke="grey" stroke-width="2" d="M66.48,-287.98C62.46,-245.95 58.11,-135.98 112.5,-72 131.59,-49.55 162.35,-35.9 186.65,-28.09"/>
<polygon fill="grey" stroke="grey" stroke-width="2" points="187.72,-31.43 196.28,-25.19 185.7,-24.72 187.72,-31.43"/>
</g>
<!-- 5 -->
<g id="node6" class="node">
<title>5</title>
<path fill="none" stroke="#56c1d8" stroke-width="2" d="M129.5,-252C129.5,-252 91.5,-252 91.5,-252 85.5,-252 79.5,-246 79.5,-240 79.5,-240 79.5,-228 79.5,-228 79.5,-222 85.5,-216 91.5,-216 91.5,-216 129.5,-216 129.5,-216 135.5,-216 141.5,-222 141.5,-228 141.5,-228 141.5,-240 141.5,-240 141.5,-246 135.5,-252 129.5,-252"/>
<text text-anchor="middle" x="110.5" y="-231.5" font-family="sans" font-size="10.00">mask_fwd</text>
</g>
<!-- 3&#45;&gt;5 -->
<g id="edge13" class="edge">
<title>3&#45;&gt;5</title>
<path fill="none" stroke="grey" stroke-width="2" d="M78.88,-287.7C83.76,-279.56 89.69,-269.69 95.08,-260.7"/>
<polygon fill="grey" stroke="grey" stroke-width="2" points="98.09,-262.48 100.24,-252.1 92.09,-258.88 98.09,-262.48"/>
</g>
<!-- 4&#45;&gt;0 -->
<g id="edge4" class="edge">
<title>4&#45;&gt;0</title>
<path fill="none" stroke="grey" stroke-width="2" d="M310.56,-287.98C310.05,-248.17 305.09,-146.72 269.5,-72 264.66,-61.83 257.31,-52.09 249.9,-43.8"/>
<polygon fill="grey" stroke="grey" stroke-width="2" points="252.27,-41.21 242.86,-36.33 247.17,-46.01 252.27,-41.21"/>
</g>
<!-- 6 -->
<g id="node7" class="node">
<title>6</title>
<path fill="none" stroke="#56c1d8" stroke-width="2" d="M371.5,-252C371.5,-252 333.5,-252 333.5,-252 327.5,-252 321.5,-246 321.5,-240 321.5,-240 321.5,-228 321.5,-228 321.5,-222 327.5,-216 333.5,-216 333.5,-216 371.5,-216 371.5,-216 377.5,-216 383.5,-222 383.5,-228 383.5,-228 383.5,-240 383.5,-240 383.5,-246 377.5,-252 371.5,-252"/>
<text text-anchor="middle" x="352.5" y="-231.5" font-family="sans" font-size="10.00">mask_fwd</text>
</g>
<!-- 4&#45;&gt;6 -->
<g id="edge14" class="edge">
<title>4&#45;&gt;6</title>
<path fill="none" stroke="grey" stroke-width="2" d="M320.88,-287.7C325.76,-279.56 331.69,-269.69 337.08,-260.7"/>
<polygon fill="grey" stroke="grey" stroke-width="2" points="340.09,-262.48 342.24,-252.1 334.09,-258.88 340.09,-262.48"/>
</g>
<!-- 5&#45;&gt;0 -->
<g id="edge5" class="edge">
<title>5&#45;&gt;0</title>
<path fill="none" stroke="grey" stroke-width="2" d="M107.9,-215.67C104.07,-183.44 100.77,-113.76 135.5,-72 149.16,-55.57 169.31,-42.91 186.88,-34.09"/>
<polygon fill="grey" stroke="grey" stroke-width="2" points="188.81,-37.05 196.32,-29.59 185.79,-30.73 188.81,-37.05"/>
</g>
<!-- 7 -->
<g id="node8" class="node">
<title>7</title>
<path fill="none" stroke="#56d88a" stroke-width="2" d="M165,-180C165,-180 130,-180 130,-180 124,-180 118,-174 118,-168 118,-168 118,-156 118,-156 118,-150 124,-144 130,-144 130,-144 165,-144 165,-144 171,-144 177,-150 177,-156 177,-156 177,-168 177,-168 177,-174 171,-180 165,-180"/>
<text text-anchor="middle" x="147.5" y="-159.5" font-family="sans" font-size="10.00">mask_rev</text>
</g>
<!-- 5&#45;&gt;7 -->
<g id="edge15" class="edge">
<title>5&#45;&gt;7</title>
<path fill="none" stroke="grey" stroke-width="2" d="M119.65,-215.7C123.9,-207.64 129.06,-197.89 133.77,-188.98"/>
<polygon fill="grey" stroke="grey" stroke-width="2" points="136.88,-190.58 138.46,-180.1 130.69,-187.31 136.88,-190.58"/>
</g>
<!-- 6&#45;&gt;0 -->
<g id="edge6" class="edge">
<title>6&#45;&gt;0</title>
<path fill="none" stroke="grey" stroke-width="2" d="M351.67,-215.73C349.37,-184.2 340.62,-116.45 307.5,-72 295.33,-55.67 276.51,-43.12 259.76,-34.35"/>
<polygon fill="grey" stroke="grey" stroke-width="2" points="261.24,-31.17 250.73,-29.86 258.13,-37.44 261.24,-31.17"/>
</g>
<!-- 8 -->
<g id="node9" class="node">
<title>8</title>
<path fill="none" stroke="#56d88a" stroke-width="2" d="M407,-180C407,-180 372,-180 372,-180 366,-180 360,-174 360,-168 360,-168 360,-156 360,-156 360,-150 366,-144 372,-144 372,-144 407,-144 407,-144 413,-144 419,-150 419,-156 419,-156 419,-168 419,-168 419,-174 413,-180 407,-180"/>
<text text-anchor="middle" x="389.5" y="-159.5" font-family="sans" font-size="10.00">mask_rev</text>
</g>
<!-- 6&#45;&gt;8 -->
<g id="edge16" class="edge">
<title>6&#45;&gt;8</title>
<path fill="none" stroke="grey" stroke-width="2" d="M361.65,-215.7C365.9,-207.64 371.06,-197.89 375.77,-188.98"/>
<polygon fill="grey" stroke="grey" stroke-width="2" points="378.88,-190.58 380.46,-180.1 372.69,-187.31 378.88,-190.58"/>
</g>
<!-- 7&#45;&gt;0 -->
<g id="edge7" class="edge">
<title>7&#45;&gt;0</title>
<path fill="none" stroke="grey" stroke-width="2" d="M142.71,-143.81C138.48,-125.02 134.64,-94.57 146.5,-72 155.21,-55.43 171.71,-43.03 187.2,-34.41"/>
<polygon fill="grey" stroke="grey" stroke-width="2" points="188.88,-37.48 196.14,-29.77 185.66,-31.27 188.88,-37.48"/>
</g>
<!-- 9 -->
<g id="node10" class="node">
<title>9</title>
<path fill="none" stroke="#88d856" stroke-width="2" d="M215,-108C215,-108 168,-108 168,-108 162,-108 156,-102 156,-96 156,-96 156,-84 156,-84 156,-78 162,-72 168,-72 168,-72 215,-72 215,-72 221,-72 227,-78 227,-84 227,-84 227,-96 227,-96 227,-102 221,-108 215,-108"/>
<text text-anchor="middle" x="191.5" y="-87.5" font-family="sans" font-size="10.00">deduplicate</text>
</g>
<!-- 7&#45;&gt;9 -->
<g id="edge17" class="edge">
<title>7&#45;&gt;9</title>
<path fill="none" stroke="grey" stroke-width="2" d="M158.38,-143.7C163.49,-135.56 169.7,-125.69 175.34,-116.7"/>
<polygon fill="grey" stroke="grey" stroke-width="2" points="178.39,-118.43 180.75,-108.1 172.46,-114.71 178.39,-118.43"/>
</g>
<!-- 8&#45;&gt;0 -->
<g id="edge8" class="edge">
<title>8&#45;&gt;0</title>
<path fill="none" stroke="grey" stroke-width="2" d="M384.91,-143.76C378.87,-124.05 366.47,-91.96 345.5,-72 321.69,-49.34 286.65,-35.5 260.22,-27.67"/>
<polygon fill="grey" stroke="grey" stroke-width="2" points="261.13,-24.29 250.56,-24.96 259.24,-31.03 261.13,-24.29"/>
</g>
<!-- 10 -->
<g id="node11" class="node">
<title>10</title>
<path fill="none" stroke="#88d856" stroke-width="2" d="M457,-108C457,-108 410,-108 410,-108 404,-108 398,-102 398,-96 398,-96 398,-84 398,-84 398,-78 404,-72 410,-72 410,-72 457,-72 457,-72 463,-72 469,-78 469,-84 469,-84 469,-96 469,-96 469,-102 463,-108 457,-108"/>
<text text-anchor="middle" x="433.5" y="-87.5" font-family="sans" font-size="10.00">deduplicate</text>
</g>
<!-- 8&#45;&gt;10 -->
<g id="edge18" class="edge">
<title>8&#45;&gt;10</title>
<path fill="none" stroke="grey" stroke-width="2" d="M400.38,-143.7C405.49,-135.56 411.7,-125.69 417.34,-116.7"/>
<polygon fill="grey" stroke="grey" stroke-width="2" points="420.39,-118.43 422.75,-108.1 414.46,-114.71 420.39,-118.43"/>
</g>
<!-- 9&#45;&gt;0 -->
<g id="edge9" class="edge">
<title>9&#45;&gt;0</title>
<path fill="none" stroke="grey" stroke-width="2" d="M199.41,-71.7C203.05,-63.73 207.45,-54.1 211.49,-45.26"/>
<polygon fill="grey" stroke="grey" stroke-width="2" points="214.71,-46.65 215.68,-36.1 208.34,-43.74 214.71,-46.65"/>
</g>
<!-- 10&#45;&gt;0 -->
<g id="edge10" class="edge">
<title>10&#45;&gt;0</title>
<path fill="none" stroke="grey" stroke-width="2" d="M397.73,-76.8C392.95,-75.18 388.11,-73.55 383.5,-72 341.26,-57.82 292.67,-41.76 260.23,-31.07"/>
<polygon fill="grey" stroke="grey" stroke-width="2" points="261.29,-27.74 250.7,-27.94 259.1,-34.39 261.29,-27.74"/>
</g>
</g>
</svg>
